<svg width="1200" height="360" viewBox="0 0 1200 360" fill="none" xmlns="http://www.w3.org/2000/svg" role="img" aria-labelledby="title desc">
  <title id="title">SmartBook AI teal logo</title>
  <desc id="desc">A teal open book and growth arrow logo for SmartBook AI.</desc>

  <!-- Rounded icon made to stay recognizable at small sizes. -->
  <rect x="40" y="40" width="280" height="280" rx="72" fill="#0F766E"/>
  <path d="M180 249C146 224.5 111.2 213 81 215.2V116.5C118.2 113.2 151.5 126.4 180 150.8V249Z" fill="#F8FAFC"/>
  <path d="M180 249C214 224.5 248.8 213 279 215.2V116.5C241.8 113.2 208.5 126.4 180 150.8V249Z" fill="#CCFBF1"/>
  <path d="M180 150.8V249" stroke="#99F6E4" stroke-width="8" stroke-linecap="round"/>

  <!-- Upward path: business progress powered by the book. -->
  <path d="M109 194L149 167L177 181L237 120" stroke="#F59E0B" stroke-width="15" stroke-linecap="round" stroke-linejoin="round"/>
  <path d="M211 120H237V146" stroke="#F59E0B" stroke-width="15" stroke-linecap="round" stroke-linejoin="round"/>
  <circle cx="109" cy="194" r="9" fill="#FDE68A"/>
  <circle cx="149" cy="167" r="9" fill="#FDE68A"/>
  <circle cx="177" cy="181" r="9" fill="#FDE68A"/>

  <!-- Wordmark -->
  <text x="385" y="181" fill="#16302D" font-family="Inter, Avenir Next, Segoe UI, Arial, sans-serif" font-size="105" font-weight="760" letter-spacing="-4">SmartBook</text>
  <text x="974" y="181" fill="#0F766E" font-family="Inter, Avenir Next, Segoe UI, Arial, sans-serif" font-size="105" font-weight="760" letter-spacing="-4">AI</text>
  <rect x="391" y="214" width="47" height="8" rx="4" fill="#F59E0B"/>
  <text x="455" y="239" fill="#52706B" font-family="Inter, Avenir Next, Segoe UI, Arial, sans-serif" font-size="27" font-weight="600" letter-spacing="4">CATAT • PAHAMI • TUMBUH</text>
</svg>
